<?xml version="1.0" encoding="utf-8"?>
<!-- Generator: Adobe Illustrator 25.4.1, SVG Export Plug-In . SVG Version: 6.00 Build 0)  -->
<svg version="1.1" id="Layer_1" xmlns="http://www.w3.org/2000/svg" xmlns:xlink="http://www.w3.org/1999/xlink" x="0px" y="0px"
	 viewBox="0 0 200 200" style="enable-background:new 0 0 200 200;" xml:space="preserve">
<style type="text/css">
	.st0{fill:#F7931E;}
	.st1{fill:#3FA9F5;}
	.st2{fill:#FFFF00;}
	.st3{fill:#7AC943;}
	.st4{fill:#FF7BAC;}
	.st5{fill:#FF1D25;}
</style>
<g>
	<polygon class="st0" points="80.44,59.09 33.61,12.28 16.25,29.64 45.59,58.98 16,88.56 33.37,105.92 62.96,76.34 63.07,76.45 	"/>
</g>
<g>
	<polygon class="st1" points="135.08,59.65 88.25,12.84 70.89,30.2 100.23,59.53 70.64,89.11 88.01,106.47 117.6,76.89 
		117.72,77.01 	"/>
</g>
<g>
	<polygon class="st2" points="63.59,141.41 110.42,188.22 127.78,170.86 98.44,141.52 128.03,111.94 110.66,94.58 81.07,124.16 
		80.96,124.04 	"/>
</g>
<g>
	<polygon class="st3" points="8.95,140.85 55.78,187.66 73.14,170.3 43.8,140.97 73.39,111.39 56.02,94.03 26.43,123.61 
		26.31,123.49 	"/>
</g>
<g>
	<polygon class="st4" points="188.24,59.24 141.41,12.43 124.04,29.79 153.38,59.13 123.79,88.71 141.16,106.07 170.75,76.49 
		170.87,76.6 	"/>
</g>
<g>
	<polygon class="st5" points="116.74,141 163.57,187.81 180.94,170.45 151.59,141.12 181.18,111.54 163.82,94.18 134.23,123.76 
		134.11,123.64 	"/>
</g>
</svg>
